HIERARCHY
ROOT Hips
{
	OFFSET -0.001795 -0.223333 0.028219
	CHANNELS 6 Xposition Yposition Zposition Zrotation Yrotation Xrotation 
	JOINT LeftUpLeg
	{
		OFFSET 0.069520 -0.091406 -0.006815
		CHANNELS 3 Zrotation Yrotation Xrotation
		JOINT LeftLeg
		{
			OFFSET 0.034277 -0.375199 -0.004496
			CHANNELS 3 Zrotation Yrotation Xrotation
			JOINT LeftFoot
			{
				OFFSET -0.013596 -0.397961 -0.043693
				CHANNELS 3 Zrotation Yrotation Xrotation
				JOINT LeftToe
				{
					OFFSET 0.026358 -0.055791 0.119288
					CHANNELS 3 Zrotation Yrotation Xrotation
					End Site
					{
						OFFSET 0.000000 0.000000 0.000000
					}
				}
			}
		}
	}
	JOINT RightUpLeg
	{
		OFFSET -0.067670 -0.090522 -0.004320
		CHANNELS 3 Zrotation Yrotation Xrotation
		JOINT RightLeg
		{
			OFFSET -0.038290 -0.382569 -0.008850
			CHANNELS 3 Zrotation Yrotation Xrotation
			JOINT RightFoot
			{
				OFFSET 0.015774 -0.398415 -0.042312
				CHANNELS 3 Zrotation Yrotation Xrotation
				JOINT RightToe
				{
					OFFSET -0.025372 -0.048144 0.123348
					CHANNELS 3 Zrotation Yrotation Xrotation
					End Site
					{
						OFFSET 0.000000 0.000000 0.000000
					}
				}
			}
		}
	}
	JOINT Spine
	{
		OFFSET -0.002533 0.108963 -0.026696
		CHANNELS 3 Zrotation Yrotation Xrotation
		JOINT Spine1
		{
			OFFSET 0.005487 0.135180 0.001092
			CHANNELS 3 Zrotation Yrotation Xrotation
			JOINT Spine2
			{
				OFFSET 0.001457 0.052922 0.025425
				CHANNELS 3 Zrotation Yrotation Xrotation
				JOINT Neck
				{
					OFFSET -0.002778 0.213870 -0.042857
					CHANNELS 3 Zrotation Yrotation Xrotation
					JOINT Head
					{
						OFFSET 0.005152 0.064970 0.051349
						CHANNELS 3 Zrotation Yrotation Xrotation
						End Site
						{
							OFFSET 0.000000 0.000000 0.000000
						}
					}
				}
				JOINT LeftShoulder
				{
					OFFSET 0.078845 0.121749 -0.034090
					CHANNELS 3 Zrotation Yrotation Xrotation
					JOINT LeftArm
					{
						OFFSET 0.090977 0.030469 -0.008868
						CHANNELS 3 Zrotation Yrotation Xrotation
						JOINT LeftForeArm
						{
							OFFSET 0.259612 -0.012772 -0.027456
							CHANNELS 3 Zrotation Yrotation Xrotation
							JOINT LeftHand
							{
								OFFSET 0.249234 0.008986 -0.001171
								CHANNELS 3 Zrotation Yrotation Xrotation
								End Site
								{
									OFFSET 0.000000 0.000000 0.000000
								}
							}
						}
					}
				}
				JOINT RightShoulder
				{
					OFFSET -0.081759 0.118833 -0.038615
					CHANNELS 3 Zrotation Yrotation Xrotation
					JOINT RightArm
					{
						OFFSET -0.096012 0.032551 -0.009143
						CHANNELS 3 Zrotation Yrotation Xrotation
						JOINT RightForeArm
						{
							OFFSET -0.253742 -0.013329 -0.021401
							CHANNELS 3 Zrotation Yrotation Xrotation
							JOINT RightHand
							{
								OFFSET -0.255298 0.007772 -0.005559
								CHANNELS 3 Zrotation Yrotation Xrotation
								End Site
								{
									OFFSET 0.000000 0.000000 0.000000
								}
							}
						}
					}
				}
			}
		}
	}
}
MOTION
Frames: 8
Frame Time: 0.050000
0.000000 0.895606 0.000000 1.588106 1.872656 17.772479 2.092735 -2.973322 -36.237714 -7.836134 1.430777 19.280045 10.329581 21.699258 5.176917 0.000000 0.000000 0.000000 -6.025255 1.873326 -40.211694 9.482679 -1.852763 16.732846 -7.212558 -18.523192 9.546864 0.000000 0.000000 0.000000 2.830251 -5.677226 63.865464 -3.357718 1.296924 -34.437584 -3.611170 1.769241 27.771282 13.880150 -4.536589 -32.781080 0.000000 0.000000 0.000000 -14.907019 -27.575105 13.248341 -48.616586 -41.001081 9.052631 4.423561 -36.430696 0.549991 0.000000 0.000000 0.000000 19.990004 14.757081 8.231989 54.859130 34.168842 8.207435 1.621702 48.377555 4.182260 0.000000 0.000000 0.000000 
-0.001074 0.893643 0.000811 1.417998 2.042566 19.393409 2.699000 -2.845418 -36.496934 -8.290010 1.450536 16.658258 10.296124 21.750012 4.042286 0.000000 0.000000 0.000000 -6.800309 1.644922 -41.438797 11.066744 -2.201142 15.658727 -7.409210 -18.941057 9.683059 0.000000 0.000000 0.000000 2.554699 -5.537209 63.498524 -1.563601 1.075232 -34.945656 -3.563752 4.975190 27.415852 15.185255 -3.717903 -37.036825 0.000000 0.000000 0.000000 -16.585290 -29.016929 13.569336 -45.234047 -39.704173 7.565744 -0.020036 -38.997281 1.970795 0.000000 0.000000 0.000000 21.397082 12.998451 8.408378 52.895765 33.760399 7.481902 2.799252 50.027525 5.286798 0.000000 0.000000 0.000000 
-0.001786 0.892421 0.001809 1.654951 1.865452 19.299783 2.311102 -2.970929 -36.904499 -7.964574 1.413257 17.744422 10.422309 21.986065 3.886109 0.000000 0.000000 0.000000 -6.592736 1.743933 -41.720716 10.387918 -2.073543 16.529206 -7.381268 -18.920157 8.900281 0.000000 0.000000 0.000000 3.225608 -6.070268 64.795871 -3.623917 1.314088 -35.489589 -2.991946 4.011898 26.238329 14.134316 -3.906751 -33.895644 0.000000 0.000000 0.000000 -16.542272 -28.478242 13.473450 -45.753153 -39.396034 7.775276 -0.758067 -39.414261 2.256459 0.000000 0.000000 0.000000 22.092672 11.866016 7.401413 53.533938 33.659137 7.796200 4.889665 47.559443 5.624726 0.000000 0.000000 0.000000 
-0.002407 0.893455 0.003279 1.837603 1.915436 19.591933 2.047334 -3.093476 -37.346984 -7.683536 1.347229 18.138794 10.348598 21.865260 4.480345 0.000000 0.000000 0.000000 -6.556181 1.782161 -43.243082 9.925245 -2.098149 18.879711 -7.365009 -18.907191 9.706758 0.000000 0.000000 0.000000 3.188889 -6.280179 66.436772 -3.479801 1.293039 -36.243663 -3.311158 4.292372 26.334416 14.861484 -3.511383 -37.349164 0.000000 0.000000 0.000000 -16.774342 -29.065027 13.792309 -45.647383 -39.512043 7.793212 -0.107364 -38.399199 1.958402 0.000000 0.000000 0.000000 22.191118 12.504322 7.894063 50.852879 34.692385 7.563241 2.751577 47.115133 4.577143 0.000000 0.000000 0.000000 
-0.002783 0.892646 0.005311 2.240191 2.199061 18.956621 1.511105 -3.263848 -37.034848 -7.542365 1.316054 19.092347 10.268530 21.712707 4.184320 0.000000 0.000000 0.000000 -6.645266 1.677771 -43.067417 9.507024 -2.080542 20.221072 -7.507738 -19.114395 9.044944 0.000000 0.000000 0.000000 3.182289 -6.502330 67.245761 -3.329825 1.284017 -35.947108 -3.335658 4.120623 26.311526 13.779295 -3.023048 -37.597638 0.000000 0.000000 0.000000 -16.267604 -28.328740 13.263098 -45.802913 -40.131574 8.105298 1.377231 -38.804010 1.454713 0.000000 0.000000 0.000000 21.796261 12.418186 7.740944 50.019886 36.376081 8.126991 1.746105 45.114732 3.859968 0.000000 0.000000 0.000000 
-0.002762 0.892584 0.007419 2.463704 2.280022 18.318330 1.119672 -3.338084 -36.521938 -7.386574 1.283099 19.721752 10.246411 21.645832 4.042319 0.000000 0.000000 0.000000 -6.680786 1.635806 -42.737740 9.275380 -2.077036 21.218916 -7.541023 -19.147398 8.711532 0.000000 0.000000 0.000000 3.358453 -6.841294 68.666307 -4.006503 1.354499 -36.634155 -3.158413 3.922770 26.266774 14.644243 -3.130203 -39.212702 0.000000 0.000000 0.000000 -16.624749 -28.538938 13.496148 -44.559137 -39.951084 7.672489 0.948402 -39.190090 1.625087 0.000000 0.000000 0.000000 21.495536 11.810600 7.242511 49.722495 37.074808 8.390889 0.891114 44.869367 3.465213 0.000000 0.000000 0.000000 
-0.002301 0.891999 0.009431 2.364044 2.351732 18.199840 1.081669 -3.390984 -36.868451 -7.191192 1.251569 20.813074 10.282731 21.710736 3.953251 0.000000 0.000000 0.000000 -6.483971 1.698593 -43.141174 9.073215 -2.087577 22.420613 -7.583264 -19.218320 8.683406 0.000000 0.000000 0.000000 3.614779 -7.063406 68.628822 -4.107100 1.365259 -36.542490 -3.487834 3.607614 26.031807 14.744618 -3.326339 -38.562218 0.000000 0.000000 0.000000 -16.900610 -28.304032 13.500291 -44.196573 -39.835251 7.548833 2.615882 -38.496347 1.028424 0.000000 0.000000 0.000000 22.289553 12.414142 7.629002 49.213652 37.469338 8.394354 -0.719374 43.582858 2.686537 0.000000 0.000000 0.000000 
-0.001755 0.891798 0.011005 2.153767 2.007031 18.401203 1.219494 -3.353600 -37.382774 -7.071311 1.258367 21.536141 10.462311 22.024516 4.116788 0.000000 0.000000 0.000000 -5.718072 2.055878 -43.833108 8.007639 -1.766260 23.437258 -7.428061 -18.978076 8.700197 0.000000 0.000000 0.000000 3.865366 -7.067568 68.384456 -4.447450 1.395796 -36.374241 -3.335948 3.494882 25.248512 14.563934 -3.276245 -38.290408 0.000000 0.000000 0.000000 -17.379604 -28.217719 13.596226 -43.912903 -38.846185 7.159869 3.061988 -38.701179 0.880730 0.000000 0.000000 0.000000 22.887376 12.460300 7.644873 48.690693 37.346531 8.268272 -1.470610 43.385741 2.342632 0.000000 0.000000 0.000000 
